<?xml version="1.0" encoding="UTF-8"?>
<svg id="logosandtypes_com" data-name="logosandtypes com" xmlns="http://www.w3.org/2000/svg" viewBox="0 0 150 150">
  <defs>
    <style>
      .cls-1 {
        fill: none;
      }

      .cls-2 {
        fill: #ff7347;
      }
    </style>
  </defs>
  <path class="cls-1" d="M0,0H150V150H0V0Z"/>
  <polygon class="cls-2" points="74.93 74.55 118.59 14.1 138.79 14.1 94.3 74.55 138.79 137.7 118.59 137.7 74.93 74.55"/>
  <polygon class="cls-2" points="42.75 74.55 65.75 14.1 83.94 14.1 60.05 74.55 83.93 137.7 65.75 137.7 42.75 74.55"/>
  <rect class="cls-2" x="15.29" y="14.1" width="15.84" height="123.6"/>
  <polygon class="cls-2" points="74.93 74.55 118.59 14.1 138.79 14.1 94.3 74.55 138.79 137.7 118.59 137.7 74.93 74.55"/>
  <polygon class="cls-2" points="42.75 74.55 65.75 14.1 83.94 14.1 60.05 74.55 83.93 137.7 65.75 137.7 42.75 74.55"/>
  <rect class="cls-2" x="15.29" y="14.1" width="15.84" height="123.6"/>
</svg>